<?xml version="1.0" standalone="no"?>
<!DOCTYPE svg PUBLIC "-//W3C//DTD SVG 20010904//EN"
 "http://www.w3.org/TR/2001/REC-SVG-20010904/DTD/svg10.dtd">
<svg version="1.0" xmlns="http://www.w3.org/2000/svg"
 width="1024.000000pt" height="1024.000000pt" viewBox="0 0 1024.000000 1024.000000"
 preserveAspectRatio="xMidYMid meet">
<metadata>
Created by potrace 1.14, written by Peter Selinger 2001-2017
</metadata>
<g transform="translate(0.000000,1024.000000) scale(0.100000,-0.100000)"
fill="#000000" stroke="none">
<path d="M6068 9118 c33 -56 87 -152 120 -212 42 -73 56 -106 44 -101 -9 3
-68 22 -130 41 -598 181 -1250 210 -1887 83 -416 -83 -831 -242 -1204 -464
l-108 -64 -339 -16 c-338 -15 -478 -25 -459 -31 10 -3 600 -64 623 -64 7 0
-33 -35 -90 -77 -185 -141 -503 -448 -639 -620 l-60 -76 -337 -163 c-185 -90
-341 -166 -347 -168 -5 -2 -8 -5 -5 -8 3 -3 131 39 285 94 154 54 283 98 287
98 4 0 -23 -46 -61 -102 -129 -195 -221 -365 -307 -568 l-53 -124 -238 -292
-238 -292 -75 0 c-99 -1 -350 -52 -420 -85 -98 -47 -170 -137 -170 -213 0 -32
8 -45 54 -90 66 -63 91 -110 106 -197 7 -36 18 -71 26 -78 24 -20 61 -1 110
57 l48 56 72 -7 c81 -7 131 8 199 62 52 41 131 142 160 204 43 94 27 209 -37
254 -15 10 -19 18 -12 23 5 4 68 47 138 95 70 49 129 87 132 85 2 -3 -9 -61
-25 -129 -71 -298 -96 -536 -96 -894 0 -308 11 -428 61 -708 87 -486 287 -989
557 -1397 279 -422 630 -784 1032 -1065 200 -140 471 -289 709 -390 294 -124
633 -215 1001 -267 219 -31 754 -33 965 -5 499 68 886 189 1327 416 367 190
625 382 948 705 189 190 193 193 720 587 l530 397 43 -42 c72 -68 76 -80 68
-236 -6 -118 -5 -138 9 -150 36 -30 173 49 239 139 122 166 117 317 -15 466
-102 114 -108 133 -59 189 20 23 57 45 108 66 183 74 229 108 251 187 25 89 4
185 -44 203 -66 25 -198 3 -315 -52 -49 -23 -88 -53 -155 -122 -155 -157 -217
-276 -218 -418 -1 -71 3 -85 36 -150 20 -39 36 -72 34 -73 -11 -10 -763 -443
-765 -441 -1 2 39 68 88 147 337 536 542 1214 567 1874 l6 170 101 360 101
360 32 -3 c43 -4 94 19 177 82 86 65 97 71 204 107 173 58 173 66 20 246 -99
116 -131 133 -252 133 l-87 0 -31 50 c-18 29 -41 53 -54 56 -62 16 -144 -50
-193 -155 -23 -49 -26 -69 -26 -156 0 -93 2 -105 32 -166 18 -36 55 -89 84
-119 l51 -53 -58 -126 c-32 -69 -72 -157 -89 -194 l-32 -68 -12 98 c-6 54 -21
150 -33 213 l-20 115 81 790 c45 435 85 806 90 825 l7 35 45 -47 c24 -25 58
-62 76 -81 46 -51 115 -65 203 -43 112 29 186 98 196 183 8 61 -21 95 -125
148 -119 59 -149 87 -206 195 -86 163 -128 169 -230 34 -62 -83 -97 -107 -235
-159 -115 -44 -169 -75 -204 -116 -88 -105 71 -233 249 -200 33 6 91 27 129
47 48 25 67 31 63 20 -4 -9 -75 -248 -159 -531 l-152 -516 -29 73 c-55 141
-184 395 -280 550 l-97 157 -38 414 -38 414 176 11 c238 16 362 51 376 108 10
40 -24 103 -94 171 -84 82 -137 108 -189 94 -46 -13 -65 -32 -125 -126 -82
-128 -166 -185 -243 -164 -72 20 -121 88 -160 224 -22 79 -60 152 -85 165 -17
9 -28 7 -53 -7 -72 -42 -106 -193 -73 -322 37 -144 111 -181 326 -162 58 5
106 9 107 8 2 -3 -114 -473 -123 -497 -4 -12 -11 -8 -31 15 -91 107 -248 267
-368 373 -261 233 -494 392 -808 553 l-188 96 -280 272 -279 273 58 -104z
m-943 -829 c256 -21 504 -69 746 -145 l146 -47 -48 -46 c-44 -42 -49 -52 -49
-90 0 -40 5 -48 100 -145 62 -64 100 -111 100 -124 0 -29 -37 -52 -86 -52 -59
0 -68 -15 -62 -108 5 -85 35 -167 95 -261 47 -74 201 -227 248 -246 69 -29
124 4 164 98 11 26 28 50 38 54 9 4 46 -1 82 -10 90 -23 168 -22 209 3 103 63
94 206 -18 281 -51 34 -94 37 -190 13 -85 -22 -134 -9 -194 49 -41 39 -78 118
-63 133 4 4 571 -96 684 -121 28 -7 240 -193 348 -306 339 -355 623 -827 785
-1304 62 -183 125 -464 150 -670 17 -139 29 -427 23 -553 l-6 -114 -239 239
c-185 185 -238 243 -238 263 1 43 34 102 105 185 38 44 81 107 96 140 28 60
79 283 79 346 0 71 -60 141 -101 118 -10 -5 -38 -31 -63 -57 -44 -47 -45 -47
-109 -47 -55 0 -70 4 -113 32 -27 18 -76 46 -109 63 -103 51 -127 37 -61 -36
86 -97 88 -124 10 -191 -69 -60 -84 -87 -84 -158 0 -30 -3 -55 -6 -55 -35 0
-111 103 -178 239 -26 52 -58 110 -72 128 -30 40 -84 69 -109 59 -19 -7 -19 4
1 -248 6 -82 6 -87 -18 -111 -18 -18 -40 -26 -87 -31 -77 -9 -89 -13 -102 -37
-14 -27 17 -93 67 -143 22 -21 82 -67 135 -101 100 -65 149 -116 149 -154 0
-13 -13 -53 -30 -91 -35 -80 -38 -129 -10 -207 29 -84 77 -158 146 -227 138
-137 293 -185 411 -129 65 31 75 86 47 261 -8 55 -14 115 -12 135 3 32 24 -3
209 -345 l207 -381 -24 -88 c-235 -878 -803 -1633 -1576 -2093 -781 -465
-1682 -617 -2573 -435 -247 51 -609 176 -830 286 -982 492 -1666 1376 -1879
2429 -54 267 -61 338 -61 684 0 287 3 343 23 480 43 286 108 538 203 785 51
131 198 427 270 543 l51 84 27 -26 c78 -75 196 -76 296 -1 62 47 100 41 172
-26 49 -45 98 -69 140 -69 44 0 112 39 139 80 22 33 25 47 22 110 -3 81 1 85
72 96 29 5 54 16 72 35 26 25 28 33 28 108 0 102 -16 175 -45 209 -22 25 -28
27 -107 27 -72 -1 -93 -5 -158 -34 -86 -38 -180 -72 -180 -65 0 2 29 62 64
132 68 136 66 134 239 271 90 72 310 219 422 283 477 272 1021 430 1566 457
176 8 314 6 504 -10z m1472 -462 c32 -19 91 -54 130 -79 l73 -45 -143 -6
c-172 -8 -317 -9 -317 -2 0 17 34 83 53 104 25 27 92 60 124 61 11 0 47 -15
80 -33z m-4313 -630 l-7 -47 -45 0 -46 0 49 50 c27 27 50 48 52 46 2 -1 0 -24
-3 -49z"/>
<path d="M4545 6344 c-131 -17 -180 -29 -178 -40 2 -13 1031 -3012 1049 -3058
8 -21 13 -40 11 -42 -2 -2 -300 629 -662 1404 -362 774 -676 1444 -698 1488
l-38 82 -65 -36 c-192 -107 -426 -327 -557 -523 -169 -254 -262 -518 -286
-811 -32 -403 92 -810 349 -1148 109 -142 303 -315 470 -417 118 -72 420 -194
428 -173 1 4 -175 580 -393 1280 -218 700 -394 1274 -393 1276 2 1 268 -587
593 -1307 l589 -1309 71 0 c85 0 288 24 382 46 278 62 535 199 712 377 46 46
87 91 92 99 6 11 -136 436 -452 1353 -253 736 -458 1339 -456 1341 2 2 268
-515 592 -1148 323 -634 589 -1155 591 -1157 7 -8 78 150 109 242 55 166 69
265 69 482 0 154 -5 214 -23 315 -45 246 -149 498 -288 699 -96 139 -289 327
-434 424 -282 188 -590 278 -940 276 -79 -1 -189 -7 -244 -15z"/>
</g>
</svg>
